<svg viewBox="0 0 16 17" fill="none" xmlns="http://www.w3.org/2000/svg">
  <path
    d="M0.888889 9.38889H6.22222C6.71111 9.38889 7.11111 8.98889 7.11111 8.5V1.38889C7.11111 0.9 6.71111 0.5 6.22222 0.5H0.888889C0.4 0.5 0 0.9 0 1.38889V8.5C0 8.98889 0.4 9.38889 0.888889 9.38889ZM0.888889 16.5H6.22222C6.71111 16.5 7.11111 16.1 7.11111 15.6111V12.0556C7.11111 11.5667 6.71111 11.1667 6.22222 11.1667H0.888889C0.4 11.1667 0 11.5667 0 12.0556V15.6111C0 16.1 0.4 16.5 0.888889 16.5ZM9.77778 16.5H15.1111C15.6 16.5 16 16.1 16 15.6111V8.5C16 8.01111 15.6 7.61111 15.1111 7.61111H9.77778C9.28889 7.61111 8.88889 8.01111 8.88889 8.5V15.6111C8.88889 16.1 9.28889 16.5 9.77778 16.5ZM8.88889 1.38889V4.94444C8.88889 5.43333 9.28889 5.83333 9.77778 5.83333H15.1111C15.6 5.83333 16 5.43333 16 4.94444V1.38889C16 0.9 15.6 0.5 15.1111 0.5H9.77778C9.28889 0.5 8.88889 0.9 8.88889 1.38889Z"
    fill="currentColor" />
</svg>