<svg viewBox="0 0 18 19" fill="none">
  <path
    d="M15.1875 3.03125H2.8125C2.43954 3.03125 2.08185 3.17941 1.81813 3.44313C1.55441 3.70685 1.40625 4.06454 1.40625 4.4375V14.5625C1.40625 14.9355 1.55441 15.2931 1.81813 15.5569C2.08185 15.8206 2.43954 15.9688 2.8125 15.9688H15.1875C15.5605 15.9688 15.9181 15.8206 16.1819 15.5569C16.4456 15.2931 16.5938 14.9355 16.5938 14.5625V4.4375C16.5938 4.06454 16.4456 3.70685 16.1819 3.44313C15.9181 3.17941 15.5605 3.03125 15.1875 3.03125ZM14.9062 4.71875V6.40625H3.09375V4.71875H14.9062ZM3.09375 14.2812V8.09375H14.9062V14.2812H3.09375Z"
    fill="currentColor" />
</svg>