<svg  viewBox="0 0 16 17" fill="none">
  <g clip-path="url(#clip0_64_1076)">
    <path
      d="M0 13.1656V14.5C0 15.6031 2.6875 16.5 6 16.5C9.3125 16.5 12 15.6031 12 14.5V13.1656C10.7094 14.075 8.35 14.5 6 14.5C3.65 14.5 1.29062 14.075 0 13.1656ZM10 4.5C13.3125 4.5 16 3.60313 16 2.5C16 1.39688 13.3125 0.5 10 0.5C6.6875 0.5 4 1.39688 4 2.5C4 3.60313 6.6875 4.5 10 4.5ZM0 9.8875V11.5C0 12.6031 2.6875 13.5 6 13.5C9.3125 13.5 12 12.6031 12 11.5V9.8875C10.7094 10.95 8.34688 11.5 6 11.5C3.65313 11.5 1.29062 10.95 0 9.8875ZM13 10.2312C14.7906 9.88437 16 9.24063 16 8.5V7.16563C15.275 7.67812 14.2094 8.02813 13 8.24375V10.2312ZM6 5.5C2.6875 5.5 0 6.61875 0 8C0 9.38125 2.6875 10.5 6 10.5C9.3125 10.5 12 9.38125 12 8C12 6.61875 9.3125 5.5 6 5.5ZM12.8531 7.25938C14.7281 6.92188 16 6.25938 16 5.5V4.16563C14.8906 4.95 12.9844 5.37188 10.9781 5.47188C11.9 5.91875 12.5781 6.51875 12.8531 7.25938Z"
      fill="currentColor" />
  </g>
  <defs>
    <clipPath id="clip0_64_1076">
      <rect width="16" height="16" fill="white" transform="translate(0 0.5)" />
    </clipPath>
  </defs>
</svg>