<svg viewBox="0 0 16 17" fill="none" xmlns="http://www.w3.org/2000/svg">
  <path
    d="M3.6 12.9L9.6 10.1L12.4 4.1L6.4 6.9L3.6 12.9ZM8 9.3C7.77333 9.3 7.58347 9.2232 7.4304 9.0696C7.27733 8.916 7.20053 8.72613 7.2 8.5C7.2 8.27333 7.2768 8.08347 7.4304 7.9304C7.584 7.77733 7.77387 7.70053 8 7.7C8.22667 7.7 8.4168 7.7768 8.5704 7.9304C8.724 8.084 8.80053 8.27387 8.8 8.5C8.8 8.72667 8.7232 8.9168 8.5696 9.0704C8.416 9.224 8.22613 9.30053 8 9.3ZM8 16.5C6.89333 16.5 5.85333 16.2899 4.88 15.8696C3.90667 15.4493 3.06 14.8795 2.34 14.16C1.62 13.44 1.05013 12.5933 0.6304 11.62C0.210667 10.6467 0.000533333 9.60667 0 8.5C0 7.39333 0.210133 6.35333 0.6304 5.38C1.05067 4.40667 1.62053 3.56 2.34 2.84C3.06 2.12 3.90667 1.55013 4.88 1.1304C5.85333 0.710667 6.89333 0.500533 8 0.5C9.10667 0.5 10.1467 0.710133 11.12 1.1304C12.0933 1.55067 12.94 2.12053 13.66 2.84C14.38 3.56 14.9501 4.40667 15.3704 5.38C15.7907 6.35333 16.0005 7.39333 16 8.5C16 9.60667 15.7899 10.6467 15.3696 11.62C14.9493 12.5933 14.3795 13.44 13.66 14.16C12.94 14.88 12.0933 15.4501 11.12 15.8704C10.1467 16.2907 9.10667 16.5005 8 16.5Z"
    fill="currentColor" />
</svg>