<svg width="16" height="16" viewBox="0 0 16 16" fill="none" xmlns="http://www.w3.org/2000/svg">
  <path d="M6.66667 1.33333H9.33333L9.66667 3.06667C9.99333 3.16 10.3067 3.29333 10.6 3.46667L12.2 2.6L13.4 3.8L12.5333 5.4C12.7067 5.69333 12.84 6.00667 12.9333 6.33333L14.6667 6.66667V9.33333L12.9333 9.66667C12.84 9.99333 12.7067 10.3067 12.5333 10.6L13.4 12.2L12.2 13.4L10.6 12.5333C10.3067 12.7067 9.99333 12.84 9.66667 12.9333L9.33333 14.6667H6.66667L6.33333 12.9333C6.00667 12.84 5.69333 12.7067 5.4 12.5333L3.8 13.4L2.6 12.2L3.46667 10.6C3.29333 10.3067 3.16 9.99333 3.06667 9.66667L1.33333 9.33333V6.66667L3.06667 6.33333C3.16 6.00667 3.29333 5.69333 3.46667 5.4L2.6 3.8L3.8 2.6L5.4 3.46667C5.69333 3.29333 6.00667 3.16 6.33333 3.06667L6.66667 1.33333Z" stroke="currentColor" stroke-width="1.5" stroke-linecap="round" stroke-linejoin="round"/>
  <circle cx="8" cy="8" r="2.5" stroke="currentColor" stroke-width="1.5"/>
</svg>

