<svg width="18" height="18" viewBox="0 0 18 18" fill="none" xmlns="http://www.w3.org/2000/svg">
  <path d="M8.9452 6.17118L7.15494 8.85658H10.7355L8.9452 11.542" stroke="currentColor" stroke-width="1.5" stroke-linecap="round" stroke-linejoin="round">
    </path>
  <path d="M7.15494 16.7132C6.37582 16.5364 5.62755 16.2441 4.93501 15.8458M10.7355 1C12.5151 1.40645 14.1041 2.40508 15.2422 3.83239C16.3802 5.25969 17 7.03109 17 8.85658C17 10.6821 16.3802 12.4535 15.2422 13.8808C14.1041 15.3081 12.5151 16.3067 10.7355 16.7132M2.30242 13.4155C1.81413 12.7061 1.44327 11.9227 1.20409 11.0953M1 7.51388C1.14322 6.66351 1.41892 5.85789 1.80562 5.1194L1.9569 4.84639M4.38629 2.2138C5.22382 1.63725 6.16342 1.22532 7.15494 1" stroke="currentColor" stroke-width="1.5" stroke-linecap="round" stroke-linejoin="round">
    <animateTransform
      attributeName="transform"
      attributeType="XML"
      type="rotate"
      from="0 8.95 8.85"
      to="360 8.95 8.85"
      dur="4s"
      repeatCount="indefinite" />
    </path>
  <path d="M10.7355 1C12.5151 1.40645 14.1041 2.40508 15.2422 3.83239C16.3802 5.25969 17 7.03109 17 8.85658C17 10.6821 16.3802 12.4535 15.2422 13.8808C14.1041 15.3081 12.5151 16.3067 10.7355 16.7132" stroke="currentColor" stroke-width="1.5" stroke-linecap="round" stroke-linejoin="round">
    </path>
</svg>
