<svg viewBox="0 0 18 19" fill="none" xmlns="http://www.w3.org/2000/svg">
<path d="M16.3255 2.2295C16.2549 2.15211 16.1694 2.08982 16.074 2.04639C15.9787 2.00296 15.8756 1.97928 15.7708 1.97678C15.6661 1.97429 15.5619 1.99302 15.4647 2.03186C15.3674 2.07071 15.2789 2.12885 15.2047 2.20278L14.561 2.84438L15.6572 3.93774L16.29 3.30809C16.434 3.16767 16.5181 2.97698 16.5248 2.77594C16.5314 2.5749 16.46 2.3791 16.3255 2.2295ZM8.88609 12.3123H6.1875V9.61372L6.51797 9.28395L11.3745 4.43731H1.6875V16.8123H14.0625V7.12536L9.21586 11.9818L8.88609 12.3123ZM14.0625 5.53278L15.2153 4.37755L14.1223 3.28454L12.9674 4.43731H14.0625V5.53278Z" fill="currentColor"/>
<path d="M7.3125 11.1875H8.41957L14.0625 5.53297V4.4375H12.9674L7.3125 10.0804V11.1875Z" fill="currentColor"/>
</svg>
