<svg viewBox="0 0 16 17" fill="none">
  <path
    d="M8 16.5C6.89333 16.5 5.85333 16.2899 4.88 15.8696C3.90667 15.4493 3.06 14.8795 2.34 14.16C1.62 13.44 1.05013 12.5933 0.6304 11.62C0.210667 10.6467 0.000533333 9.60667 0 8.5C0 7.39333 0.210133 6.35333 0.6304 5.38C1.05067 4.40667 1.62053 3.56 2.34 2.84C3.06 2.12 3.90667 1.55013 4.88 1.1304C5.85333 0.710667 6.89333 0.500533 8 0.5C9.10667 0.5 10.1467 0.710133 11.12 1.1304C12.0933 1.55067 12.94 2.12053 13.66 2.84C14.38 3.56 14.9501 4.40667 15.3704 5.38C15.7907 6.35333 16.0005 7.39333 16 8.5C16 9.60667 15.7899 10.6467 15.3696 11.62C14.9493 12.5933 14.3795 13.44 13.66 14.16C12.94 14.88 12.0933 15.4501 11.12 15.8704C10.1467 16.2907 9.10667 16.5005 8 16.5ZM5.68 14.46L6.64 12.26C6.08 12.06 5.5968 11.7501 5.1904 11.3304C4.784 10.9107 4.4672 10.4205 4.24 9.86L2.04 10.78C2.34667 11.6333 2.82 12.38 3.46 13.02C4.1 13.66 4.84 14.14 5.68 14.46ZM4.24 7.14C4.46667 6.58 4.78347 6.09013 5.1904 5.6704C5.59733 5.25067 6.08053 4.94053 6.64 4.74L5.72 2.54C4.86667 2.86 4.12 3.34 3.48 3.98C2.84 4.62 2.36 5.36667 2.04 6.22L4.24 7.14ZM8 10.9C8.66667 10.9 9.23333 10.6667 9.7 10.2C10.1667 9.73333 10.4 9.16667 10.4 8.5C10.4 7.83333 10.1667 7.26667 9.7 6.8C9.23333 6.33333 8.66667 6.1 8 6.1C7.33333 6.1 6.76667 6.33333 6.3 6.8C5.83333 7.26667 5.6 7.83333 5.6 8.5C5.6 9.16667 5.83333 9.73333 6.3 10.2C6.76667 10.6667 7.33333 10.9 8 10.9ZM10.32 14.46C11.16 14.14 11.8968 13.6635 12.5304 13.0304C13.164 12.3973 13.6405 11.6605 13.96 10.82L11.76 9.86C11.56 10.42 11.2533 10.9035 10.84 11.3104C10.4267 11.7173 9.94667 12.0339 9.4 12.26L10.32 14.46ZM11.76 7.1L13.96 6.18C13.64 5.34 13.1635 4.60347 12.5304 3.9704C11.8973 3.33733 11.1605 2.86053 10.32 2.54L9.4 4.78C9.94667 4.98 10.42 5.28347 10.82 5.6904C11.22 6.09733 11.5333 6.5672 11.76 7.1Z"
    fill="currentColor" />
</svg>